<?xml version="1.0" encoding="UTF-8"?>
<svg width="198px" height="37.8905625px" viewBox="0 0 198 37.8905625" version="1.1" xmlns="http://www.w3.org/2000/svg" xmlns:xlink="http://www.w3.org/1999/xlink">
    <title>26025D0C-59F4-492B-AD4F-4CC4FC7695A7</title>
    <defs>
        <polygon id="path-1" points="0 0 36.6636609 0 36.6636609 37.8905625 0 37.8905625"></polygon>
    </defs>
    <g id="NARCISSE" stroke="none" stroke-width="1" fill="none" fill-rule="evenodd">
        <g id="NB/D_Home" transform="translate(-335.5, -3570)">
            <g id="BIEN-ETRE" transform="translate(0, 3400)">
                <g id="Group-2" transform="translate(266.5, 121)">
                    <g id="ELEMENT/SEPARATION" transform="translate(69, 49)">
                        <rect id="Rectangle" fill="#000000" x="0" y="19" width="70" height="1"></rect>
                        <rect id="Rectangle-Copy" fill="#000000" x="128" y="19" width="70" height="1"></rect>
                        <g id="Group-3" transform="translate(81, 0)">
                            <mask id="mask-2" fill="white">
                                <use xlink:href="#path-1"></use>
                            </mask>
                            <g id="Clip-2"></g>
                            <path d="M33.9433961,24.2320286 C33.9033961,24.1371714 33.8625389,24.0448857 33.8159675,23.9534571 C33.6816818,23.7051714 33.2728247,23.0586 31.8165389,22.5220286 C31.1659675,22.2834571 30.0845389,21.8868857 28.6371104,21.7028857 C28.0799675,21.6320286 27.4288247,21.5728857 26.8871104,21.5211714 C26.3468247,21.4706 25.7988247,21.4520286 25.2582532,21.3997429 C24.4556818,21.3240286 23.4616818,21.2020286 23.3776818,21.1894571 C23.3411104,21.1837429 23.2636818,21.1780286 23.3045389,21.0863143 C23.3525389,20.9774571 23.3696818,20.9000286 23.4085389,20.7906 C23.4182532,20.7637429 23.4356818,20.7051714 23.5193961,20.7191714 C23.6836818,20.7491714 23.8519675,20.7617429 24.0208247,20.7737429 C24.6956818,20.8263143 25.3773961,20.8023143 26.0242532,20.7394571 C26.6745389,20.6791714 27.3116818,20.5863143 27.9448247,20.4868857 C28.5788247,20.3851714 29.2113961,20.2857429 29.8448247,20.2271714 C30.4791104,20.1671714 31.1151104,20.1377429 31.7473961,20.1594571 C32.3785389,20.1791714 33.0102532,20.2428857 33.6179675,20.3994571 C33.9153961,20.4720286 34.1913961,20.5871714 34.4345389,20.7657429 C34.6739675,20.9446 34.8719675,21.1831714 35.0125389,21.4557429 C35.1533961,21.7300286 35.2408247,22.0351714 35.2836818,22.3471714 C35.2931104,22.4163143 35.3013961,22.4868857 35.3062532,22.5563143 C35.0088247,23.0597429 34.6871104,23.4623143 34.4942532,23.6863143 C34.3296818,23.8788857 34.1511104,24.0454571 33.9433961,24.2320286 L33.9433961,24.2320286 Z M32.6839675,28.8488857 C31.5851104,30.6471714 30.6291104,31.5877429 29.5011104,31.9003143 C29.5448247,31.6677429 29.5722532,31.4351714 29.5862532,31.2006 C29.6091104,30.7726 29.5885389,30.3420286 29.5251104,29.9151714 C29.4602532,29.4903143 29.3559675,29.0703143 29.1856818,28.6623143 C29.0131104,28.2500286 28.7708247,27.8760286 28.4888247,27.5397429 C28.2096818,27.2023143 27.8888247,26.9068857 27.5582532,26.6334571 C26.8959675,26.0871714 26.1751104,25.6486 25.4528247,25.2320286 C25.0845389,25.0223143 24.7151104,24.8206 24.3691104,24.5951714 C24.1962532,24.4826 23.5499675,23.9748857 23.3905389,23.8386 C23.0213961,23.5171714 22.6548247,23.1974571 22.2882532,22.8826 C22.1882532,22.7966 22.2625389,22.7477429 22.2931104,22.7166 C22.3733961,22.6403143 22.4493961,22.5611714 22.5222532,22.4760286 C22.5471104,22.4471714 22.5956818,22.3920286 22.6865389,22.4546 C22.8453961,22.5697429 23.6571104,23.1166 23.9056818,23.2740286 C23.9056818,23.2740286 24.6913961,23.7460286 24.8156818,23.8228857 C25.3036818,24.1231714 25.6308247,24.3251714 26.1319675,24.6108857 C26.6219675,24.9006 27.1133961,25.1874571 27.6053961,25.4717429 C28.5925389,26.0346 29.6291104,26.5286 30.7462532,26.8603143 C31.5168247,27.0894571 32.2828247,27.0963143 32.5236818,27.0857429 C32.9868247,27.0634571 33.3519675,26.8126 33.3779675,26.7857429 C33.3416818,27.3986 33.1731104,28.0494571 32.6839675,28.8488857 L32.6839675,28.8488857 Z M26.6531104,34.7103143 C26.8299675,34.5351714 26.9925389,34.3451714 27.1371104,34.1417429 C27.5365389,33.5760286 27.7879675,32.9048857 27.8831104,32.2143143 C27.9079675,32.0440286 27.9465389,31.4974571 27.9156818,31.1663143 C27.8822532,30.8137429 27.8116818,30.4643143 27.6962532,30.1274571 C27.4608247,29.4557429 27.0639675,28.8554571 26.6113961,28.3277429 C26.1556818,27.8011714 25.6519675,27.3291714 25.1248247,26.8823143 C24.5971104,26.4366 24.0253961,26.0351714 23.4956818,25.6154571 C22.5013961,24.8280286 22.1259675,24.2183143 21.5959675,23.3934571 C21.5725389,23.3566 21.5268247,23.2817429 21.6265389,23.2248857 C21.7425389,23.1583143 21.7742532,23.1563143 21.8771104,23.0728857 C21.9505389,23.0146 21.9936818,23.0734571 22.0142532,23.1003143 C22.3139675,23.4857429 23.1616818,24.5671714 23.9505389,25.1140286 C24.9862532,25.8323143 26.5128247,26.6851714 27.1628247,27.1468857 C27.8093961,27.6094571 28.3702532,28.1794571 28.7113961,28.8706 C29.0533961,29.5654571 29.1696818,30.7854571 29.1616818,31.1837429 C29.1482532,31.9788857 28.9622532,32.7814571 28.5331104,33.4457429 C28.3993961,33.6506 28.2405389,33.8357429 28.0625389,34.0028857 C27.6871104,34.2860286 27.2196818,34.5437429 26.6531104,34.7103143 L26.6531104,34.7103143 Z M17.4968247,35.6077429 C16.9811104,34.8683143 16.7362532,33.9766 16.7008247,33.0743143 C16.6828247,32.6420286 16.7111104,32.2057429 16.7739675,31.7743143 C16.8356818,31.4240286 16.9808247,30.7306 17.0851104,30.3877429 C17.2173961,29.9480286 17.3745389,29.5097429 17.5539675,29.0794571 C17.5979675,28.9731714 17.8322532,28.4251714 17.8322532,28.4251714 C17.9202532,28.2020286 18.0088247,27.9811714 18.0916818,27.7574571 L18.4462532,26.7554571 C18.4851104,26.6383143 18.5193961,26.5211714 18.5499675,26.4046 C18.6776818,25.9371714 18.7971104,25.4743143 18.8648247,25.0023143 C18.9108247,24.6851714 18.9705389,24.3637429 19.0022532,24.0466 C19.0119675,23.9660286 19.0825389,23.9574571 19.1182532,23.9591714 C19.1982532,23.9643143 19.2136818,23.9594571 19.3011104,23.9617429 C19.3551104,23.9643143 19.3791104,24.0177429 19.3788247,24.0466 C19.3779675,24.1488857 19.3736818,24.2500286 19.3673961,24.3463143 C19.3445389,24.7360286 19.3382532,25.1234571 19.3002532,25.5091714 C19.2613961,25.8943143 19.2128247,26.2791714 19.1468247,26.6548857 C19.0776818,27.0334571 18.9919675,27.4066 18.8808247,27.7663143 L18.7908247,28.0366 L18.6916818,28.3206 C18.6233961,28.5091714 18.5611104,28.7014571 18.4953961,28.8940286 C18.2228247,29.6668857 17.9891104,30.4554571 17.8311104,31.2628857 C17.6833961,32.0683143 17.6282532,32.9157429 17.7999675,33.7394571 C17.8842532,34.1497429 18.0225389,34.5477429 18.2091104,34.9206 C18.3959675,35.2923143 18.6279675,35.6366 18.8942532,35.9528857 C19.1599675,36.2668857 19.4713961,36.5517429 19.8245389,36.7708857 C20.1782532,36.9906 20.5736818,37.1548857 20.9848247,37.2060286 C21.3905389,37.2577429 21.7842532,37.3037429 22.2396818,37.1797429 C22.2776818,37.1688857 22.3045389,37.2097429 22.2199675,37.2500286 C21.4605389,37.6043143 20.3919675,37.6651714 19.0908247,37.0568857 C18.4528247,36.7137429 17.9042532,36.2060286 17.4968247,35.6077429 L17.4968247,35.6077429 Z M17.1108247,28.2766 L17.0399675,28.4380286 C16.9831104,28.5577429 16.9331104,28.6731714 16.8831104,28.7908857 C16.6876818,29.2571714 16.5359675,29.7300286 16.4171104,30.2068857 C16.3016818,30.6888857 16.2142532,31.1794571 16.1662532,31.6746 C15.8328247,31.7851714 15.5002532,31.8757429 15.1665389,31.9411714 C14.8545389,32.0060286 14.5445389,32.0568857 14.2279675,32.0983143 C13.9128247,32.1411714 13.5893961,32.1548857 13.2662532,32.1234571 C12.9445389,32.0943143 12.6236818,32.0326 12.3076818,31.9434571 C11.9899675,31.8566 11.6765389,31.7428857 11.3722532,31.6068857 C11.3036818,31.5763143 11.3142532,31.5820286 11.2459675,31.5494571 C11.4902532,31.5586 11.7073961,31.5160286 11.9516818,31.4731714 C12.5442532,31.3703143 13.0576818,31.1048857 13.5522532,30.7688857 C14.0482532,30.4334571 14.4936818,30.0317429 14.9011104,29.6034571 C15.3128247,29.1651714 15.6928247,28.7063143 16.0733961,28.2171714 C16.4491104,27.7174571 16.7716818,27.2000286 17.0471104,26.6674571 C17.3162532,26.1403143 17.5362532,25.5968857 17.7331104,25.0511714 C17.8319675,24.7817429 18.1405389,23.9660286 18.1785389,23.8186 C18.2062532,23.7157429 18.2813961,23.7460286 18.3145389,23.7640286 C18.3448247,23.7808857 18.3531104,23.7857429 18.3848247,23.8020286 C18.4348247,23.8268857 18.4908247,23.8454571 18.5488247,23.8674571 C18.6313961,23.8951714 18.6168247,23.9754571 18.6076818,24.0166 C18.5433961,24.3000286 18.4756818,24.5806 18.4045389,24.8611714 C18.2905389,25.3051714 18.1682532,25.7446 18.0153961,26.1668857 C17.9391104,26.3797429 17.8536818,26.5794571 17.7596818,26.7994571 L17.4776818,27.4523143 C17.3788247,27.6697429 17.2865389,27.8908857 17.1859675,28.1120286 L17.1108247,28.2766 Z M6.89139608,29.4308857 C6.87253894,29.3720286 6.84511037,29.2734571 6.83082465,29.2137429 C6.68225322,28.5694571 6.79453894,27.4286 7.96653894,26.7771714 C9.28453894,26.0440286 10.3662532,25.5103143 10.9242532,25.2417429 C12.0416818,24.6960286 13.4593961,23.8497429 14.2439675,23.4208857 C15.0288247,22.9920286 16.2742532,22.1620286 16.4876818,21.9937429 C16.5531104,21.9417429 16.6039675,21.9388857 16.6425389,22.0188857 C16.6933961,22.1226 16.6705389,22.0660286 16.7805389,22.2500286 C16.8439675,22.3571714 16.7659675,22.4168857 16.7659675,22.4168857 C16.7659675,22.4168857 16.2128247,22.8854571 16.0062532,23.0794571 C15.5896818,23.4720286 15.0008247,24.1306 14.6185389,24.5954571 C14.2402532,25.0600286 12.8002532,26.8643143 12.4351104,27.3057429 C12.0716818,27.7411714 11.6993961,28.1677429 11.2973961,28.5600286 C10.8973961,28.9491714 10.4733961,29.3177429 9.97853894,29.5657429 C9.78596751,29.6591714 9.56796751,29.7140286 9.35511037,29.7488857 C9.10311037,29.2560286 9.17225322,28.9623143 9.13196751,28.8863143 C9.07111037,28.7703143 8.90482465,28.8683143 8.69111037,28.9751714 C8.49311037,29.0740286 8.33882465,29.2077429 7.48625322,29.3677429 C7.24025322,29.4128857 7.11282465,29.4211714 6.89139608,29.4308857 L6.89139608,29.4308857 Z M4.89253894,24.2503143 C5.53368179,23.6266 6.35796751,23.0200286 6.99539608,22.7326 C7.63253894,22.8966 8.28339608,23.0111714 8.94282465,23.0726 C8.19225322,23.4737429 7.47339608,23.9406 6.77396751,24.4460286 C5.51882465,25.3514571 4.91196751,26.2637429 4.70853894,26.8954571 C4.50596751,27.5314571 4.63511037,28.2054571 4.75768179,28.5180286 C4.87968179,28.8280286 5.09225322,29.0203143 5.28596751,29.2023143 C5.29796751,29.2131714 5.30053894,29.2288857 5.28225322,29.2208857 C4.45796751,28.8608857 3.56425322,28.0786 3.64139608,26.8946 C3.71711037,25.7100286 4.25311037,24.8728857 4.89253894,24.2503143 L4.89253894,24.2503143 Z M4.29168179,20.9726 C3.59082465,20.4643143 3.01168179,19.7948857 2.55396751,19.0443143 C2.08853894,18.2966 1.73425322,17.4740286 1.38711037,16.6477429 C1.21025322,16.2340286 1.03539608,15.8194571 0.828538937,15.4157429 C0.71339608,15.1963143 0.690824652,15.1117429 0.562253223,14.9217429 C0.52139608,14.8614571 0.569110366,14.7854571 0.640824652,14.8623143 C0.746538937,14.9777429 0.786253223,14.9966 0.902538937,15.1363143 C1.16082465,15.4323143 1.39482465,15.7634571 1.64453894,16.0777429 C2.13539608,16.7140286 2.53282465,17.3377429 3.04396751,17.9940286 C3.28939608,18.3097429 3.57739608,18.6074571 3.88596751,18.8914571 C4.19053894,19.1788857 4.51996751,19.4400286 4.87282465,19.6711714 C5.57711037,20.1308857 6.36625322,20.4611714 7.17711037,20.6537429 C7.99082465,20.8454571 9.73511037,20.9617429 12.0053961,20.9174571 C14.2753961,20.8743143 15.2928247,20.6771714 16.2748247,20.6397429 C16.3871104,20.6354571 16.3739675,20.6266 16.3842532,20.7011714 C16.3896818,20.7408857 16.3899675,20.7708857 16.3908859,20.8117429 C16.3931104,20.8994571 16.3308247,20.9294571 16.2982532,20.9417429 C14.7819675,21.5060286 13.0093961,22.0574571 11.8379675,22.2360286 C11.8093961,22.2400286 11.7811104,22.2431714 11.7525389,22.2471714 C11.3251104,22.2957429 10.7291104,22.3623143 10.4491104,22.3740286 C10.0433961,22.3971714 9.63711037,22.4051714 9.23082465,22.3948857 C8.76253894,22.3871714 7.71453894,22.3148857 6.63968179,22.0428857 C5.92282465,21.8611714 4.98939608,21.4837429 4.29168179,20.9726 L4.29168179,20.9726 Z M1.54711037,14.4303143 C2.00168179,14.3948857 2.28282465,14.3514571 2.70396751,14.2408857 C3.12568179,14.1317429 3.42596751,14.0080286 3.83111037,13.8920286 C4.23425322,13.7748857 4.64539608,13.7034571 5.05996751,13.6968857 C5.47596751,13.6894571 5.88711037,13.7343143 6.30339608,13.8086 C6.71596751,13.8837429 7.11968179,13.9906 7.50825322,14.1363143 C8.28711037,14.4266 8.99968179,14.8771714 9.69796751,15.3614571 C10.3948247,15.8451714 11.0828247,16.3603143 11.7825389,16.8614571 C12.1308247,17.1137429 12.4808247,17.3646 12.8328247,17.6108857 C13.1845389,17.8554571 13.5448247,18.1048857 13.9176818,18.3323143 C14.2928247,18.5557429 14.6782532,18.7643143 15.0762532,18.9480286 C15.2756818,19.0377429 15.4779675,19.1251714 15.6811104,19.2068857 C15.8876818,19.2854571 16.0965389,19.3557429 16.3071104,19.4220286 C16.3756818,19.4446 16.4451104,19.4588857 16.5131104,19.4820286 C16.6056818,19.5160286 16.5819675,19.5691714 16.5722532,19.6020286 C16.5636818,19.6268857 16.5719675,19.6857429 16.4493961,19.6537429 C15.5228247,19.4091714 14.5993961,19.1734571 13.6899675,18.9017429 C12.9176818,18.6688857 12.1505389,18.4268857 11.3913961,18.1697429 C10.6331104,17.9111714 9.88025322,17.6291714 9.16882465,17.2723143 C7.72196751,16.5320286 6.22882465,15.8140286 4.66111037,15.3163143 C3.65196751,14.9960286 1.63482465,14.6720286 0.657110366,14.5406 C0.562253223,14.5268857 0.559110366,14.4154571 0.699110366,14.4323143 C0.823967509,14.4477429 1.40311037,14.4428857 1.54711037,14.4303143 L1.54711037,14.4303143 Z M2.64425322,13.0168857 C3.47253894,12.5003143 4.30053894,11.9848857 5.16653894,11.5540286 C5.59996751,11.3383143 6.04225322,11.1437429 6.49168179,10.9771714 C6.71739608,10.8954571 6.94253894,10.8220286 7.16996751,10.7680286 C7.39825322,10.7143143 7.63053894,10.6746 7.86539608,10.6526 C8.80168179,10.5603143 9.74711037,10.7360286 10.6325389,11.0583143 C11.2028247,11.2660286 11.6671104,11.5534571 11.8151104,11.6480286 C12.2411104,11.9111714 12.6428247,12.2140286 13.0119675,12.5546 C13.7073961,13.1914571 14.2822532,13.9508857 14.7536818,14.7637429 C15.2408247,15.6243143 15.8213961,16.4426 16.5008247,17.1806 C16.7619675,17.4620286 17.0411104,17.7291714 17.3439675,17.9726 C17.3685389,17.9926 17.4048247,18.0431714 17.3633961,18.1037429 C17.3311104,18.1517429 17.2976818,18.1997429 17.2659675,18.2474571 C17.2459675,18.2754571 17.2351104,18.3323143 17.1196818,18.2777429 C16.9108247,18.1780286 16.7316818,18.0260286 16.5459675,17.8917429 C15.8228247,17.3528857 15.1811104,16.7228857 14.5876818,16.0360286 C13.9873961,15.3520286 13.4462532,14.6291714 12.8385389,13.9094571 C12.5342532,13.5506 12.2022532,13.1983143 11.8231104,12.8863143 C11.4445389,12.5751714 11.0222532,12.3134571 10.5796818,12.1148857 C10.1382532,11.9151714 9.68168179,11.7654571 9.22396751,11.6500286 C8.99225322,11.5931714 8.76996751,11.5371714 8.52339608,11.4986 C8.28253894,11.4614571 8.03853894,11.4411714 7.79596751,11.4394571 C6.82111037,11.4286 5.88453894,11.7186 5.03425322,12.1088857 C4.17996751,12.5020286 3.39025322,12.9297429 2.58796751,13.3786 C2.18568179,13.6003143 1.12711037,14.0797429 0.953967509,14.1274571 C0.695110366,14.2003143 0.715110366,14.1288857 0.918824652,14.0194571 C1.11111037,13.9151714 2.22911037,13.2754571 2.64425322,13.0168857 L2.64425322,13.0168857 Z M12.8125389,8.32517143 C13.5625389,5.96345714 14.9536818,4.72631429 15.3519675,4.27602857 C15.7513961,3.82545714 17.1013961,2.4646 17.4853961,1.98774286 C17.6345389,1.80374286 17.8011104,1.60745714 17.8679675,1.52002857 C17.9656818,1.39545714 18.1276818,1.39145714 18.0005389,1.57917143 C17.8931104,1.73602857 17.7825389,1.93031429 17.5685389,2.23831429 C17.3308247,2.58288571 16.5865389,3.87602857 16.2231104,4.60631429 C15.8571104,5.33631429 15.0739675,7.94431429 14.9433961,9.65174286 C14.8119675,11.3591714 15.0968247,12.6043143 15.3605389,13.4297429 C15.5833961,14.1308857 16.9028247,16.7146 17.7548247,17.5434571 C17.8139675,17.6000286 17.7179675,17.6851714 17.6688247,17.6414571 C16.6022532,16.6408857 15.6125389,14.9857429 15.3628247,14.5137429 C14.8896818,13.6183143 14.1882532,12.7491714 13.4182532,12.0940286 C12.9862532,11.7263143 12.9016818,11.6537429 12.3699675,11.3088857 C12.3525389,11.2966 12.3222532,11.2703143 12.3176818,11.1597429 C12.3145389,11.0468857 12.3133961,9.89602857 12.8125389,8.32517143 L12.8125389,8.32517143 Z M18.4128247,1.49831429 C18.3371104,2.10231429 18.0951104,3.64317143 17.9628247,4.75745714 C17.7739675,6.2966 17.6253961,7.97317143 17.6548247,9.52231429 C17.6839675,10.7191714 17.6851104,12.2071714 18.0376818,14.0960286 C18.1096818,14.4788857 18.1873961,14.8586 18.2725389,15.2386 C18.3565389,15.6177429 18.6039675,16.6731714 18.6511104,16.8217429 C18.6571104,16.8423143 18.6631104,16.8863143 18.6291104,16.9063143 C18.5282532,16.9683143 18.3996818,17.0523143 18.3128247,17.1294571 C18.2853961,17.1543143 18.2219675,17.1966 18.1611104,17.1343143 C17.9133961,16.8760286 17.7308247,16.5608857 17.5171104,16.2760286 C17.0102532,15.6057429 16.3411104,14.3437429 15.9645389,12.9383143 C15.6273961,11.6817429 15.4608247,10.4386 15.7476818,8.46202857 C16.0439675,6.42402857 16.4868247,5.17631429 16.8156818,4.41602857 C17.1376818,3.65117143 17.4691104,2.97688571 17.8756818,2.21688571 C18.0833961,1.82802857 18.1622532,1.64602857 18.2365389,1.42745714 C18.3071104,1.22717143 18.4442532,1.25688571 18.4128247,1.49831429 L18.4128247,1.49831429 Z M19.9562532,2.1526 C20.2393961,2.4626 20.9613961,3.20345714 21.5745389,3.96117143 C22.1899675,4.71688571 22.6059675,5.30917143 22.8888247,6.0126 C23.1688247,6.71717143 23.2991104,7.87545714 23.2713961,8.68174286 C23.2465389,9.48888571 23.0145389,10.5880286 22.8196818,11.3883143 C22.7225389,11.7871714 22.3836818,12.7840286 22.2699675,13.1820286 C21.9622532,14.2586 21.6153961,15.3263143 21.2239675,16.3834571 C21.2156818,16.4051714 21.1939675,16.4446 21.1511104,16.4323143 C20.8813961,16.3580286 20.9405389,16.3548857 20.5979675,16.3186 C20.5753961,16.3160286 20.4942532,16.3091714 20.5073961,16.2437429 C20.5656818,15.9854571 20.9885389,13.6111714 21.1013961,12.9597429 C21.2151104,12.3091714 21.3631104,11.4508857 21.3893961,11.0663143 C21.4422532,10.2986 21.4639675,9.29974286 21.3796818,8.53802857 C21.2028247,7.01088571 20.7045389,5.75974286 20.1205389,4.36745714 C19.8339675,3.67431429 19.5539675,3.04202857 19.2559675,2.35374286 C19.1091104,2.0106 19.0539675,1.71145714 18.9439675,1.35831429 C18.8451104,1.04631429 19.0431104,1.12545714 19.1385389,1.25688571 C19.4165389,1.63688571 19.7213961,1.89202857 19.9562532,2.1526 L19.9562532,2.1526 Z M20.1636818,1.82288571 C20.5291104,2.09002857 20.9082532,2.3386 21.2985389,2.55802857 C21.8328247,2.85545714 22.3642532,3.13774286 22.8613961,3.4626 C23.3591104,3.78545714 23.8233961,4.14974286 24.2553961,4.55802857 C24.6659675,4.94174286 24.9719675,5.42545714 25.1873961,5.9446 C25.4031104,6.4646 25.5473961,7.01917143 25.6393961,7.5926 C25.7371104,8.20345714 25.7736818,8.83145714 25.7720248,9.46688571 C25.2445389,10.2091714 24.8185389,11.0148857 24.4571104,11.8291714 C24.3502532,12.0754571 24.2425389,12.3206 24.1448247,12.5680286 C24.0922532,12.6920286 24.0471104,12.8103143 23.9956818,12.9257429 L23.8359675,13.2754571 C23.7256818,13.5094571 23.6099675,13.7414571 23.4873961,13.9714571 C23.3679675,14.2028857 23.2428247,14.4337429 23.1165389,14.6634571 C22.7325389,15.3511714 22.3316818,16.0303143 21.9248247,16.7077429 C21.9105389,16.7311714 21.8668247,16.7726 21.8251104,16.7411714 C21.7522532,16.6868857 21.7413961,16.6840286 21.6636818,16.6440286 C21.6451104,16.6346 21.6119675,16.6134571 21.6419675,16.5548857 C21.7759675,16.2963143 22.4842532,14.6540286 22.7602532,13.8520286 C23.0351104,13.0471714 23.4268247,11.7671714 23.5962532,10.9340286 C23.7613961,10.0980286 23.8785389,9.33488571 23.8696818,8.46374286 C23.8651104,8.02945714 23.8245389,7.49888571 23.7348247,7.07031429 C23.6471104,6.63974286 23.5093961,6.22031429 23.3296818,5.82317143 C22.9693961,5.02631429 22.4373961,4.32745714 21.8622532,3.71202857 C21.2965389,3.08688571 20.4871104,2.40745714 19.8859675,1.82488571 C19.7425389,1.68545714 19.6039675,1.55117143 19.4519675,1.39631429 C19.2873961,1.22945714 19.4142532,1.18488571 19.5428247,1.29345714 C19.7731104,1.48631429 20.0748247,1.75717143 20.1636818,1.82288571 L20.1636818,1.82288571 Z M26.5676818,9.3806 C27.0413961,8.68631429 27.9519675,7.86631429 28.8513961,7.3626 C29.2988247,7.10888571 29.4839675,7.00231429 30.2642532,6.7306 C31.0448247,6.45717143 32.2302532,6.20145714 33.0471104,6.26688571 C33.8939675,6.33545714 34.1962532,6.50631429 34.5565389,6.7766 C35.2876818,7.32117143 35.5125389,8.50288571 35.5242532,9.15202857 C35.5219675,9.25288571 35.5182532,9.3546 35.5119675,9.45574286 C35.5102532,9.4806 35.4882532,9.48517143 35.4785389,9.46202857 C35.4305389,9.34802857 35.3733961,9.23802857 35.3028247,9.13717143 C35.0348247,8.74202857 34.4685389,8.39974286 34.0439675,8.21402857 C33.6168247,8.02717143 32.7611104,7.77402857 32.0248247,7.82888571 C31.2893961,7.88345714 30.5645389,8.15802857 30.1425389,8.35174286 C29.2945389,8.7406 28.5476818,9.30317143 27.8762532,9.92202857 C27.1999675,10.5431714 26.5928247,11.2248857 26.0159675,11.9291714 C25.4416818,12.6311714 25.0325389,13.3857429 24.4639675,14.3086 C23.8913961,15.2348857 22.6939675,16.9483143 22.5348247,17.2137429 C22.5193961,17.2386 22.4833961,17.3000286 22.4391104,17.2417429 C22.4125389,17.2020286 22.3708247,17.1734571 22.3356818,17.1406 C22.3239675,17.1300286 22.2959675,17.1231714 22.3048247,17.0871714 C22.3059675,17.0823143 22.3185389,17.0606 22.3313961,17.0417429 C22.4968247,16.8120286 23.1396818,15.7334571 23.6765389,14.9083143 C24.2128247,14.0817429 24.8496818,12.7428857 25.1476818,12.0554571 C25.4433961,11.3674571 26.0922532,10.0760286 26.5676818,9.3806 L26.5676818,9.3806 Z M28.0182532,19.9468857 C27.3708247,20.0108857 26.8553961,20.0737429 26.1471104,20.1471714 C25.8288247,20.1797429 25.4999675,20.2351714 25.0036818,20.2486 C24.6868247,20.2571714 24.3631104,20.2606 24.0399675,20.2854571 C23.8939675,20.2951714 23.7476818,20.3040286 23.6005389,20.3086 C23.5845389,20.3106 23.5533961,20.3057429 23.5636818,20.2591714 C23.5711104,20.2280286 23.5776818,20.1960286 23.5828247,20.1657429 C23.5919675,20.1083143 23.6282532,20.1094571 23.6473961,20.1054571 C24.6656818,19.8131714 25.8748247,19.5283143 26.7582532,19.5488857 C27.6399675,19.5677429 28.7513961,19.4966 29.2473961,19.4748857 C29.7442532,19.4534571 30.6968247,19.3368857 31.2388247,19.2028857 C31.9616818,19.0274571 32.5316818,18.8488857 33.1948247,18.4951714 C33.7879675,18.1757429 34.3088247,17.8006 34.7976818,17.3486 C35.1185389,17.5566 35.8793961,18.2597429 36.0236818,20.3360286 C36.0219675,21.0394571 35.7571104,21.7360286 35.4385389,22.3237429 C35.4176818,21.9968857 35.3499675,21.6717429 35.2202532,21.3597429 C35.0908247,21.0466 34.8876818,20.7560286 34.6259675,20.5288857 C34.3633961,20.3014571 34.0451104,20.1383143 33.7213961,20.0403143 C33.0876818,19.8391714 32.5216818,19.8086 31.8659675,19.7554571 C31.2079675,19.7037429 30.6285389,19.7077429 29.9773961,19.7648857 C29.4725389,19.8108857 28.0342532,19.9457429 28.0182532,19.9468857 L28.0182532,19.9468857 Z M25.1062532,34.8991714 C25.7116818,34.1146 26.0088247,32.9520286 25.9119675,31.8660286 C25.8842532,31.5400286 25.8239675,31.2268857 25.7451104,30.9137429 C25.6631104,30.6014571 25.5611104,30.2948857 25.4308247,29.9966 C25.1745389,29.4008857 24.8268247,28.8520286 24.4428247,28.3414571 C24.0431104,27.8346 23.6091104,27.3534571 23.1682532,26.8894571 L22.4968247,26.2020286 C22.3836818,26.0877429 21.9593961,25.6294571 21.8631104,25.5106 C21.6739675,25.2706 21.5493961,24.9968857 21.3939675,24.7348857 C21.2448247,24.4703143 21.1105389,24.1963143 20.9991104,23.9143143 C20.9756818,23.8508857 20.9516818,23.7860286 20.9293961,23.7226 C20.9156818,23.6857429 20.8753961,23.6203143 20.9836818,23.5757429 C21.0402532,23.5517429 21.0448247,23.5506 21.0991104,23.5228857 C21.1836818,23.4791714 21.2088247,23.5494571 21.2213961,23.5831714 C21.3336818,23.8828857 21.4725389,24.1774571 21.6322532,24.4623143 C21.9925389,25.0723143 22.4505389,25.6423143 23.0031104,26.1306 C24.0896818,27.0926 25.2996818,27.7494571 26.1942532,28.7034571 C26.6408247,29.1740286 27.0339675,29.6971714 27.2613961,30.2917429 C27.5688247,31.0926 27.5616818,31.8531714 27.5376818,32.1768857 C27.4913961,32.8228857 27.2259675,33.4831714 26.8845389,34.0431714 C26.7179675,34.3191714 26.5151104,34.5760286 26.2845389,34.8066 C25.8845389,34.8957429 25.5996818,34.9203143 25.1062532,34.8991714 L25.1062532,34.8991714 Z M16.7005389,18.9857429 C16.6336818,18.9634571 15.7725389,18.5348857 15.3845389,18.3368857 C15.0125389,18.1448857 13.7779675,17.3937429 13.4153961,17.1657429 C13.0542532,16.9388857 12.4902532,16.5843143 12.1328247,16.3497429 C11.4165389,15.8828857 10.7128247,15.3991714 9.98511037,14.9294571 C9.25768179,14.4657429 8.49168179,14.0166 7.64968179,13.7380286 C7.22911037,13.5968857 6.49025322,13.4511714 5.76825322,13.3748857 C5.04596751,13.2988857 4.15853894,13.4791714 3.75368179,13.6417429 C2.70968179,14.0586 2.31711037,14.1877429 0.822253223,14.3603143 C0.61139608,14.3846 0.705110366,14.2906 0.807681795,14.2663143 C1.81739608,14.0251714 2.33396751,13.7723143 2.70168179,13.5920286 C3.53339608,13.1788857 4.33511037,12.7851714 5.17853894,12.4423143 C6.01625322,12.0968857 7.22339608,11.8266 7.78368179,11.9140286 C8.34482465,12.0003143 8.60196751,11.9931714 9.08339608,12.1588857 C9.56568179,12.3243143 10.6705389,12.7094571 11.4019675,13.3743143 C12.1348247,14.0397429 12.8505389,15.0866 13.1488247,15.4471714 C13.2953961,15.6286 13.9193961,16.3308857 14.0833961,16.4983143 C14.7333961,17.1766 15.4633961,17.8086 16.2842532,18.2880286 C16.4842532,18.4077429 16.6911104,18.5126 16.9016818,18.6117429 C17.0102532,18.6651714 16.9673961,18.7251714 16.9493961,18.7577429 C16.9168247,18.8171714 16.8848247,18.8751714 16.8545389,18.9348857 C16.8382532,18.9674571 16.8248247,19.0291714 16.7005389,18.9857429 L16.7005389,18.9857429 Z M20.5331104,12.0931714 C20.5031104,12.2737429 20.4762532,12.4554571 20.4431104,12.6366 C20.4088247,12.8186 20.3776818,13.0066 20.3476818,13.1917429 C20.2256818,13.9328857 20.1168247,14.6783143 20.0311104,15.4248857 C19.9965389,15.7211714 19.9656818,16.0171714 19.9365389,16.3146 C19.9279675,16.3871714 19.8805389,16.3943143 19.8568247,16.4003143 C19.6568247,16.4428857 19.5399675,16.4594571 19.3539675,16.5380286 C19.3279675,16.5480286 19.2696818,16.5180286 19.2653961,16.4906 C19.1302532,15.6226 19.0359675,15.3168857 18.8542532,14.1886 C18.6102532,12.6828857 18.3425389,11.3431714 18.2516818,9.81402857 C18.1531104,8.28545714 18.1608247,7.52431429 18.2613961,5.61431429 C18.3013961,4.85031429 18.4473961,3.26431429 18.5208247,2.49488571 C18.5562532,2.10974286 18.5628247,1.91002857 18.5688247,1.63002857 C18.5733961,1.51002857 18.5828247,1.46031429 18.5833961,1.35888571 C18.5885389,1.07517143 18.7279675,1.11802857 18.7653961,1.31374286 C18.7873961,1.42888571 18.8805389,1.88488571 19.0225389,2.37117143 C19.1653961,2.85974286 19.7545389,4.5086 19.7545389,4.5086 C20.2653961,5.90631429 20.6371104,7.35002857 20.7313961,8.81488571 C20.7825389,9.54688571 20.7525389,10.2794571 20.6759675,11.0060286 C20.6376818,11.3683143 20.5879675,11.7314571 20.5331104,12.0931714 L20.5331104,12.0931714 Z M35.1085389,11.3720286 C34.9345389,11.2026 34.7262532,11.0503143 34.5251104,10.9134571 C34.1985389,10.6894571 33.8331104,10.5671714 33.4431104,10.4668857 C32.6588247,10.2608857 31.8156818,10.3717429 31.0682532,10.6503143 C30.3145389,10.9263143 29.6271104,11.3403143 28.9833961,11.7966 C28.3373961,12.2546 27.7373961,12.7634571 27.1516818,13.2868857 C26.5711104,13.8123143 25.9959675,14.3463143 25.4576818,14.9083143 C24.9188247,15.4666 24.3965389,16.0443143 23.8802532,16.6263143 C23.5711104,16.9760286 23.2628247,17.3286 22.9585389,17.6857429 C22.9396818,17.7066 22.9019675,17.7566 22.8659675,17.7048857 C22.8433961,17.6754571 22.8188247,17.6471714 22.7936818,17.6177429 C22.7788247,17.6006 22.7468247,17.5666 22.7965389,17.5043143 C23.0079675,17.2371714 23.2231104,16.9728857 23.4308247,16.7034571 C23.7073961,16.3497429 23.9731104,15.9866 24.2422532,15.6274571 C24.5045389,15.2617429 24.7693961,14.8980286 25.0259675,14.5297429 C25.5376818,13.7946 26.0353961,13.0628857 26.5571104,12.3440286 C27.0756818,11.6286 27.6353961,10.9406 28.2545389,10.3203143 C28.8771104,9.70145714 29.5622532,9.14288571 30.3339675,8.75145714 C30.7193961,8.55602857 31.1256818,8.40517143 31.5459675,8.31831429 C31.9676818,8.22974286 32.4005389,8.20831429 32.8308247,8.24974286 C33.2659675,8.29231429 33.6985389,8.37374286 34.1036818,8.52831429 C34.5036818,8.68117143 34.8796818,8.91688571 35.1348247,9.25717143 C35.3173961,9.49374286 35.4245389,9.78345714 35.4571104,10.0840286 C35.3662532,10.6700286 35.2208247,11.0980286 35.1085389,11.3720286 L35.1085389,11.3720286 Z M34.0465389,12.9757429 C33.4465389,13.2617429 32.8193961,13.4363143 32.1793961,13.6437429 L30.3753961,14.2154571 C29.7308247,14.4277429 28.9622532,14.7017429 28.3319675,14.9711714 C27.0751104,15.5148857 26.4619675,15.8208857 25.3579675,16.6577429 C24.8445389,17.0466 23.7993961,17.9063143 23.3139675,18.2557429 C23.2699675,18.2877429 23.1665389,18.1734571 23.2179675,18.1248857 C23.5945389,17.7697429 23.9873961,17.4366 24.3551104,17.0723143 C24.9039675,16.5251714 25.4522532,15.9751714 25.9862532,15.4157429 C26.5233961,14.8571714 27.0328247,14.2757429 27.5745389,13.7300286 C28.1142532,13.1837429 28.6768247,12.6608857 29.2753961,12.1874571 C29.8742532,11.7166 30.5108247,11.2908857 31.2042532,10.9963143 C31.5499675,10.8520286 31.9099675,10.7371714 32.2782532,10.6797429 C32.6468247,10.6206 33.0245389,10.6206 33.3908247,10.6903143 C34.0013961,10.8046 34.5416818,11.1626 35.0231104,11.5723143 C34.9888247,11.6488857 34.9493961,11.7117429 34.9396818,11.7277429 C34.7793961,11.9706 35.0093961,12.0560286 35.1445389,12.1811714 C34.7619675,12.5746 34.5139675,12.7540286 34.0465389,12.9757429 L34.0465389,12.9757429 Z M35.4668247,12.7734571 C35.3605389,13.2831714 35.1876818,13.7743143 34.9271104,14.2160286 C34.6028247,14.7746 34.1311104,15.2248857 33.5985389,15.5897429 C33.4651104,15.6808857 33.3308247,15.7694571 33.1902532,15.8560286 L32.9825389,15.9814571 C32.9142532,16.0208857 32.8459675,16.0586 32.7748247,16.0946 C32.4928247,16.2371714 32.1899675,16.3514571 31.8842532,16.4540286 C31.2696818,16.6611714 30.6319675,16.8217429 29.9913961,16.9663143 C29.3519675,17.1128857 28.7013961,17.2314571 28.0513961,17.3466 C27.4022532,17.4640286 26.7545389,17.5963143 26.1096818,17.7531714 C25.4533961,17.9120286 24.8351104,18.1060286 24.2142532,18.3937429 C23.9451104,18.5183143 23.7699675,18.6303143 23.6076818,18.7251714 C23.5145389,18.7806 23.4725389,18.7777429 23.4431104,18.7446 C23.4248247,18.7234571 23.4051104,18.6708857 23.3976818,18.6528857 C23.3708247,18.5943143 23.4685389,18.5434571 23.4851104,18.5303143 C24.0153961,18.1246 24.5028247,17.7814571 25.0568247,17.4177429 C25.6085389,17.0534571 26.1773961,16.7180286 26.7479675,16.3711714 C27.3176818,16.0246 27.9725389,15.7814571 28.5693961,15.4908857 C29.7619675,14.9051714 31.0376818,14.4728857 32.2982532,13.9774571 C32.9259675,13.7268857 33.5565389,13.4771714 34.1659675,13.1628857 C34.8542532,12.8066 35.1905389,12.4211714 35.2676818,12.3343143 C35.3296818,12.4471714 35.3999675,12.5917429 35.4668247,12.7734571 L35.4668247,12.7734571 Z M11.6593961,20.3897429 C10.0593961,20.3703143 8.42311037,20.3831714 6.93511037,19.9520286 C6.19225322,19.7403143 4.47196751,18.9754571 3.48511037,17.8768857 C2.49796751,16.7786 1.95053894,15.9957429 1.57511037,15.5911714 C0.948538937,14.9154571 0.860538937,14.8686 0.592824652,14.7194571 C0.550538937,14.6948857 0.564538937,14.6154571 0.626538937,14.6243143 C1.22653894,14.7117429 3.36968179,15.1437429 4.50311037,15.6166 C5.99482465,16.2374571 7.48082465,16.9817429 8.89253894,17.7946 C9.62168179,18.1963143 10.3759675,18.5454571 11.1476818,18.8417429 C11.9211104,19.1368857 12.7122532,19.3708857 13.5116818,19.5614571 C14.3122532,19.7528857 15.1225389,19.9017429 15.9393961,20.0063143 C16.0802532,20.0234571 16.2219675,20.0351714 16.3631104,20.0557429 C16.4571104,20.0708857 16.4388247,20.1334571 16.4339675,20.1666 C16.4282532,20.1957429 16.4408247,20.2563143 16.3296818,20.2580286 C14.7693961,20.2871714 13.4262532,20.4114571 11.6593961,20.3897429 L11.6593961,20.3897429 Z M6.47311037,28.3560286 C6.45282465,28.5754571 6.46911037,28.7948857 6.51082465,29.0077429 C6.53168179,29.1100286 6.55796751,29.2123143 6.59082465,29.3123143 C6.60739608,29.3608857 6.62682465,29.4080286 6.64539608,29.4548857 C6.27939608,29.4580286 6.04625322,29.4354571 5.74682465,29.3588857 C5.73911037,29.3580286 5.70968179,29.3417429 5.70339608,29.3348857 C5.44825322,29.0951714 5.19825322,28.8951714 5.03539608,28.4760286 C4.85625322,28.0151714 4.91825322,27.5054571 5.11253894,27.0571714 C5.30396751,26.6074571 5.57511037,26.1988857 5.92539608,25.8448857 C7.03939608,24.7180286 8.90196751,23.9586 9.79111037,23.4351714 C9.98082465,23.3291714 10.1688247,23.2180286 10.3568247,23.1094571 C10.8925389,23.0860286 11.4276818,23.0254571 11.9528247,22.9237429 C12.8642532,22.7363143 13.7565389,22.4454571 14.6048247,22.0634571 C15.0031104,21.8846 15.6851104,21.5757429 16.3622532,21.2566 C16.4271104,21.2260286 16.4279675,21.2597429 16.4376818,21.2888857 C16.4479675,21.3211714 16.4533961,21.3566 16.4608247,21.3911714 C16.4648247,21.4146 16.4831104,21.4503143 16.4025389,21.4988857 C16.1348247,21.6657429 15.8499675,21.8257429 15.5745389,21.9871714 C15.5745389,21.9871714 14.2356818,22.7691714 13.9573961,22.9188857 C13.4088247,23.2168857 11.2151104,24.4428857 10.6668247,24.7408857 C9.57482465,25.3408857 8.47539608,25.9463143 7.46625322,26.7126 C7.20911037,26.9106 6.97282465,27.1483143 6.79453894,27.4286 C6.61596751,27.7054571 6.50225322,28.0288857 6.47311037,28.3560286 L6.47311037,28.3560286 Z M9.86596751,30.5028857 C9.70653894,30.3171714 9.58396751,30.1457429 9.48682465,29.9866 C10.1136818,29.9343143 10.9899675,29.3537429 11.4351104,28.9814571 C12.3228247,28.2274571 13.2096818,27.2208857 13.9871104,26.3323143 C14.3785389,25.8806 14.7825389,25.4411714 15.1725389,25.0060286 C15.5488247,24.5786 15.9259675,24.1594571 16.2971104,23.7431714 C16.5545389,23.4557429 16.7948247,23.1566 17.0671104,22.8906 C17.1593961,22.7986 17.2253961,22.8528857 17.2565389,22.8883143 C17.3925389,23.0457429 17.5448247,23.2028857 17.7133961,23.3457429 C17.7805389,23.4023143 17.7576818,23.4814571 17.7408247,23.5160286 C17.5445389,23.9251714 17.3533961,24.3383143 17.1582532,24.7528857 L16.4362532,26.3154571 C16.1828247,26.8443143 15.9179675,27.3746 15.5931104,27.8654571 C15.2619675,28.3497429 14.9062532,28.8331714 14.5359675,29.2734571 C14.1671104,29.7080286 13.7776818,30.1243143 13.3345389,30.4700286 C12.8945389,30.8163143 12.4005389,31.1008857 11.8559675,31.2417429 C11.5373961,31.3254571 11.2039675,31.3580286 10.8696818,31.3463143 C10.4176818,31.0551714 10.0765389,30.7471714 9.86596751,30.5028857 L9.86596751,30.5028857 Z M22.1791104,37.0177429 C21.7945389,37.0777429 21.3991104,37.0734571 21.0245389,36.9911714 C20.6482532,36.9103143 20.2953961,36.7511714 19.9831104,36.5320286 C19.6711104,36.3123143 19.4019675,36.0363143 19.1682532,35.7286 C18.6993961,35.1188857 18.3731104,34.4048857 18.2591104,33.6557429 C18.1413961,32.9054571 18.2211104,32.1328857 18.4025389,31.3848857 C18.5833961,30.6317429 18.8728247,29.9017429 19.1628247,29.1640286 C19.1628247,29.1640286 19.4399675,28.4183143 19.5236818,28.0877429 C19.6065389,27.7586 19.7093961,27.2843143 19.7539675,26.8751714 C19.8005389,26.4688857 19.8196818,26.0134571 19.8216818,25.6046 C19.8296818,25.1977429 19.8193961,24.7900286 19.7965389,24.3860286 C19.7893961,24.2571714 19.7816818,24.1251714 19.7708247,23.9928857 C19.7636818,23.9303143 19.8093961,23.9203143 19.8308247,23.9171714 C19.8513961,23.9146 19.9059675,23.9023143 19.9259675,23.8980286 C19.9751104,23.8883143 19.9879675,23.9397429 19.9879675,23.9657429 C20.0522532,24.7168857 20.1242532,25.4668857 20.2088247,26.2226 C20.3622532,27.5237429 20.5613961,28.8106 20.6142532,30.1126 C20.6313961,30.7643143 20.6439675,31.4223143 20.7079675,32.0840286 C20.7725389,32.7431714 20.8893961,33.4040286 21.0885389,34.0386 C21.2848247,34.6663143 21.5613961,35.3151714 22.0516818,35.7943143 C22.2945389,36.0320286 22.5753961,36.2580286 22.9039675,36.3314571 C23.0788247,36.3714571 23.1576818,36.3777429 23.2799675,36.4006 C23.1562532,36.5491714 23.0042532,36.7208857 22.8431104,36.8514571 C22.6271104,36.9266 22.4036818,36.9831714 22.1791104,37.0177429 L22.1791104,37.0177429 Z M24.1779675,34.8080286 C24.1462532,34.8028857 24.0588247,34.7948857 24.0393961,34.8640286 C23.9756818,35.1111714 23.8848247,35.6131714 23.4445389,36.1946 C23.3339675,36.1828857 22.6428247,36.0777429 22.2893961,35.6574571 C21.9373961,35.2366 21.4942532,34.2591714 21.4188247,33.9474571 C21.1065389,32.7031714 21.1405389,31.4137429 21.1716818,30.1123143 C21.1791104,29.4628857 21.1113961,28.8308857 21.0779675,28.1754571 C21.0382532,27.5177429 20.9528247,26.8571714 20.8299675,26.2014571 C20.7162532,25.5448857 20.5785389,24.8917429 20.4239675,24.2431714 C20.3951104,24.1208857 20.3819675,23.9928857 20.3591104,23.8688857 C20.3531104,23.8448857 20.3362532,23.7943143 20.3908247,23.7837429 C20.4082532,23.7800286 20.4399675,23.7668857 20.4573961,23.7626 C20.5116818,23.7477429 20.5128247,23.8048857 20.5176818,23.8340286 C20.5305389,23.9011714 20.5433961,23.9691714 20.5571104,24.0366 C20.6291104,24.3534571 20.9725389,25.2974571 21.3105389,25.8777429 C21.6493961,26.4560286 22.4011104,27.1423143 22.6382532,27.3654571 C23.1073961,27.8120286 23.5799675,28.2377429 23.9876818,28.7006 C24.3819675,29.1668857 24.7302532,29.6603143 24.9971104,30.1991714 C25.2642532,30.7334571 25.4602532,31.3157429 25.5551104,31.9068857 C25.6459675,32.5003143 25.6153961,33.1140286 25.4439675,33.6974571 C25.3602532,33.9886 25.2416818,34.2723143 25.0933961,34.5400286 C25.0276818,34.6600286 24.9559675,34.7771714 24.8785389,34.8911714 C24.6665389,34.8768857 24.4059675,34.8468857 24.1779675,34.8080286 L24.1779675,34.8080286 Z M33.2508247,24.8263143 C33.1996818,24.8711714 33.0556818,24.9143143 33.1816818,25.1903143 C33.2465389,25.3348857 33.4065389,25.7843143 33.3971104,26.4983143 C33.3439675,26.5540286 33.2853961,26.6043143 33.2211104,26.6437429 C32.9993961,26.7843143 32.7259675,26.8240286 32.4571104,26.8263143 C32.1851104,26.8257429 31.9111104,26.7886 31.6411104,26.7360286 C31.3696818,26.6803143 31.0988247,26.6146 30.8405389,26.5283143 C30.3188247,26.3571714 29.8162532,26.1208857 29.3299675,25.8543143 C28.8405389,25.5906 28.3662532,25.2994571 27.8973961,24.9954571 C26.9568247,24.3903143 26.1159675,23.7703143 25.0751104,23.2174571 C24.9468247,23.1491714 23.6928247,22.4166 22.9493961,22.0566 C22.9202532,22.0431714 22.8642532,22.0148857 22.9096818,21.9411714 C22.9442532,21.8828857 23.0008247,21.7366 23.0196818,21.6928857 C23.0568247,21.6123143 23.1271104,21.6320286 23.1602532,21.6434571 C23.2576818,21.6808857 23.3579675,21.7148857 23.4599675,21.7471714 C24.0188247,21.9211714 24.5962532,22.0343143 25.1693961,22.1063143 C25.7448247,22.1768857 26.2988247,22.2071714 26.8542532,22.2103143 C27.4071104,22.2128857 27.9596818,22.1948857 28.4948247,22.2143143 C29.0316818,22.2320286 29.7245389,22.3291714 30.5822532,22.5466 C31.4393961,22.7654571 32.5739675,23.1348857 33.0031104,23.4374571 C33.3111104,23.6477429 33.5073961,23.7954571 33.7796818,24.3843143 C33.4773961,24.6517429 33.3036818,24.7808857 33.2508247,24.8263143 L33.2508247,24.8263143 Z M35.6756818,15.3077429 C35.4608247,15.9194571 35.1253961,16.4843143 34.6828247,16.9483143 C34.2059675,17.4623143 33.6176818,17.8640286 32.9848247,18.1628857 C32.3513961,18.4648857 31.6722532,18.6717429 30.9779675,18.8100286 C30.2842532,18.9497429 29.5736818,19.0086 28.8631104,19.0280286 C28.1499675,19.0494571 27.5342532,19.0500286 26.8056818,19.0383143 C26.0442532,19.0354571 25.2888247,19.1683143 24.5793961,19.4026 C24.3111104,19.4917429 23.9605389,19.5920286 23.6999675,19.7097429 C23.6768247,19.7208857 23.6353961,19.7494571 23.6351104,19.6706 C23.6325389,19.5180286 23.6042532,19.3597429 23.5788247,19.2046 C23.5753961,19.1834571 23.5653961,19.1417429 23.6219675,19.1171714 C23.8562532,19.0191714 24.1188247,18.9457429 24.3631104,18.8720286 C24.9808247,18.6897429 25.6168247,18.5591714 26.2571104,18.4426 C27.5611104,18.2183143 28.8402532,17.8583143 30.1288247,17.5083143 C30.7708247,17.3283143 31.4128247,17.1363143 32.0433961,16.8883143 C32.3556818,16.7617429 32.6671104,16.6226 32.9679675,16.4488857 C33.0425389,16.4057429 33.1165389,16.3588857 33.1882532,16.3108857 L33.3968247,16.1680286 C33.5351104,16.0711714 33.6708247,15.9720286 33.8031104,15.8660286 C34.0693961,15.6557429 34.3228247,15.4240286 34.5476818,15.1657429 C34.7705389,14.9066 34.9631104,14.6208857 35.1151104,14.3191714 C35.3162532,13.9220286 35.4776818,13.6277429 35.5539675,13.2000286 C35.5588247,13.1703143 35.5871104,13.1706 35.5945389,13.2003143 C35.6219675,13.2937429 35.6159675,13.2668857 35.6416818,13.3754571 C35.7691104,13.9254571 35.7365389,14.6991714 35.6756818,15.3077429 L35.6756818,15.3077429 Z M36.4013961,20.9683143 C36.5365389,19.3777429 36.0608247,17.8137429 35.0753961,17.0177429 C35.1988247,16.8446 35.3431104,16.5986 35.5468247,16.2694571 C36.5928247,14.5788857 36.9288247,12.7340286 36.4496818,9.8806 C35.9719675,7.02974286 34.3779675,6.36917143 34.3311104,6.34631429 C34.0282532,6.17688571 33.6902532,6.06517143 33.3536818,6.0046 C32.8099675,5.90545714 32.2588247,5.9146 31.7199675,5.98345714 C31.1816818,6.05202857 30.6513961,6.17888571 30.1388247,6.33774286 C29.6196818,6.49945714 29.1131104,6.69745714 28.6285389,6.94945714 C28.1431104,7.1986 27.6831104,7.50145714 27.2573961,7.85031429 C26.9205389,8.12602857 26.6102532,8.43402857 26.3239675,8.76145714 C26.3579675,8.34688571 26.3591104,7.92774286 26.3228247,7.50802857 C26.2665389,6.87602857 26.1191104,6.23974286 25.8359675,5.65231429 C25.5533961,5.06517143 25.1422532,4.53631429 24.6393961,4.1186 C24.1631104,3.72202857 23.6502532,3.35888571 23.1116818,3.0506 C22.5716818,2.74231429 22.0093961,2.49374286 21.4656818,2.23517143 C20.9205389,1.98031429 20.3925389,1.70174286 19.9051104,1.35174286 C19.5445389,1.09574286 19.0191104,0.715742857 18.8605389,0.500314286 C18.7025389,0.283742857 18.6525389,0.126314286 18.6131104,0.0480285714 C18.5748247,-0.0305428571 18.5165389,-0.00682857143 18.4973961,0.0743142857 C18.4302532,0.383742857 18.2231104,0.717742857 18.0565389,0.946314286 C17.8836818,1.18917143 17.6885389,1.42002857 17.4885389,1.64117143 C17.0825389,2.08602857 16.6448247,2.50202857 16.2062532,2.91917143 C15.3308247,3.75602857 14.4351104,4.58517143 13.6525389,5.55402857 C13.4568247,5.79517143 13.2671104,6.04317143 13.0899675,6.3046 C12.9091104,6.57288571 12.7531104,6.83831429 12.6088247,7.11974286 C12.3216818,7.67745714 12.1002532,8.2646 11.9388247,8.86345714 C11.7319675,9.62802857 11.6253961,10.8123143 11.6191104,10.8648857 C11.6139675,10.9071714 11.5813961,10.8966 11.5656818,10.8894571 C11.3359675,10.7823143 11.0479675,10.6597429 10.8088247,10.5754571 C9.85568179,10.2417429 8.82453894,10.1026 7.81653894,10.2337429 C7.56539608,10.2663143 7.31596751,10.3168857 7.07168179,10.3834571 C6.82511037,10.4491714 6.58825322,10.5363143 6.35739608,10.6300286 C5.89625322,10.8134571 5.44968179,11.0317429 5.01825322,11.2703143 C4.15311037,11.7457429 3.34025322,12.2991714 2.53425322,12.8503143 C2.13082465,13.1243143 1.87968179,13.3017429 1.46625322,13.5574571 C1.07168179,13.7983143 0.906253223,13.9031714 0.0456817946,14.2643143 C0.0142532232,14.2783143 -0.0217467768,14.3403143 0.0165389374,14.3834571 C0.063110366,14.4346 0.141110366,14.5220286 0.166538937,14.5560286 C0.390253223,14.8431714 0.543967509,15.1474571 0.692824652,15.4803143 C0.875967509,15.8866 1.02939608,16.3060286 1.18339608,16.7271714 C1.48968179,17.5691714 1.80282465,18.4226 2.24796751,19.2243143 C2.69196751,20.0217429 3.27853894,20.7617429 4.01139608,21.3397429 C4.63996751,21.8400286 5.36653894,22.2131714 6.12368179,22.4737429 C5.55682465,22.8083143 4.84425322,23.1617429 4.14653894,24.0577429 C3.71139608,24.6134571 3.38682465,25.3326 3.27596751,25.9468857 C3.16368179,26.5617429 2.82225322,27.6874571 3.89311037,28.9443143 C4.96396751,30.2028857 6.32482465,30.9974571 9.46168179,32.2186 C13.2165389,33.6820286 15.4691104,32.7431714 16.1279675,32.3806 C16.1225389,32.6417429 16.1285389,32.8431714 16.1513961,33.1103143 C16.1922532,33.5983143 16.2848247,34.0874571 16.4479675,34.5548857 C16.6116818,35.0217429 16.8462532,35.4677429 17.1408247,35.8614571 C17.6228247,36.5171714 18.2148247,37.0331714 19.0013961,37.4100286 C19.7876818,37.7857429 20.6945389,38.1583143 22.9485389,37.6237429 C26.4499675,36.7926 27.9388247,35.0151714 28.5019675,34.2668857 C29.0656818,33.5160286 29.2453961,32.8526 29.4291104,32.2328857 C30.0282532,32.0597429 32.0299675,31.2968857 33.6791104,28.5754571 C35.6402532,25.3343143 36.2582532,22.6548857 36.4013961,20.9683143 L36.4013961,20.9683143 Z" id="Fill-1" fill="#1D1D1B" mask="url(#mask-2)"></path>
                        </g>
                    </g>
                </g>
            </g>
        </g>
    </g>
</svg>